<?xml version="1.0" standalone="no"?>
<!DOCTYPE svg PUBLIC "-//W3C//DTD SVG 20010904//EN"
 "http://www.w3.org/TR/2001/REC-SVG-20010904/DTD/svg10.dtd">
<svg version="1.0" xmlns="http://www.w3.org/2000/svg"
 width="278.000000pt" height="278.000000pt" viewBox="0 0 278.000000 278.000000"
 preserveAspectRatio="xMidYMid meet">
<metadata>
Created by potrace 1.11, written by Peter Selinger 2001-2013
</metadata>
<g transform="translate(0.000000,278.000000) scale(0.100000,-0.100000)"
fill="#000000" stroke="none">
<path d="M550 2604 c-104 -22 -200 -75 -284 -157 -178 -174 -225 -434 -123
-687 41 -102 93 -166 314 -387 193 -193 213 -216 213 -246 0 -34 18 -58 53
-70 10 -4 17 -17 17 -34 0 -15 7 -36 14 -46 12 -15 18 -17 36 -7 25 13 22 15
44 -27 11 -22 14 -45 10 -76 -5 -33 -2 -51 11 -71 12 -18 15 -36 11 -58 -7
-41 4 -59 46 -72 37 -12 45 -33 47 -131 1 -66 24 -138 54 -172 11 -12 52 -32
91 -45 60 -19 88 -22 186 -20 114 3 116 3 160 -27 37 -25 55 -31 102 -31 31 0
60 4 63 10 9 15 87 12 166 -6 44 -10 87 -13 112 -9 23 3 73 9 110 11 63 5 72
3 109 -22 33 -23 54 -29 107 -32 46 -2 74 2 91 12 14 9 45 25 70 37 62 30 116
88 150 162 37 83 43 120 31 192 -18 102 -19 98 14 108 62 18 119 52 136 82 30
48 24 82 -20 126 -41 41 -59 46 -110 28 -25 -9 -38 -8 -64 5 -32 15 -33 17
-35 79 -2 58 1 68 28 102 33 41 40 97 16 124 -7 9 -24 35 -38 59 -27 47 -28
45 8 163 10 35 14 70 10 91 -9 52 -52 111 -104 144 -41 25 -56 29 -122 29 -41
0 -87 -3 -102 -7 -23 -7 -27 -4 -37 23 -6 18 -22 42 -35 54 -30 28 -125 65
-167 65 -41 0 -30 14 39 50 112 58 117 76 27 105 -80 25 -143 16 -268 -39
l-38 -17 25 48 c14 27 52 75 86 108 33 33 60 67 60 76 0 23 -43 49 -79 49 -41
0 -77 -15 -138 -57 -51 -35 -54 -36 -72 -19 -19 18 -61 15 -61 -4 0 -15 -40
-22 -55 -10 -9 7 -12 23 -8 44 4 27 0 37 -22 54 -21 17 -31 19 -46 11 -27 -14
-43 -3 -134 93 -103 108 -145 140 -247 188 -143 66 -310 86 -458 54z m278 -30
c157 -32 269 -94 403 -222 50 -47 94 -93 99 -103 7 -13 1 -32 -25 -75 -42 -70
-54 -108 -62 -194 -5 -50 -8 -59 -14 -41 -12 32 -50 24 -68 -13 -16 -34 -19
-98 -7 -140 8 -27 8 -28 -22 -22 -43 10 -47 -7 -12 -48 l31 -35 -36 10 c-63
18 -171 -22 -158 -59 3 -11 -1 -9 -11 6 -12 15 -27 22 -53 22 l-35 0 26 44
c14 25 26 53 26 64 0 16 8 21 43 25 78 9 147 44 147 75 0 9 11 27 24 41 41 45
57 103 50 180 -4 38 -10 74 -14 80 -13 22 -40 0 -41 -33 -1 -27 -2 -28 -7 -8
-9 31 -25 32 -37 5 -11 -26 -25 -30 -25 -8 0 8 -7 15 -15 15 -8 0 -15 -5 -15
-11 0 -8 -16 -10 -50 -5 -33 4 -50 3 -50 -4 0 -6 -10 -8 -25 -4 -27 7 -30 -1
-15 -40 5 -14 16 -26 24 -26 17 0 36 -30 36 -55 0 -25 -66 46 -81 88 -12 33
-39 52 -39 27 0 -5 -6 -8 -12 -6 -7 3 -35 7 -62 10 -40 5 -47 3 -42 -9 10 -26
-13 -26 -36 0 -26 31 -58 33 -58 5 0 -15 -9 -22 -31 -27 -22 -4 -34 -14 -41
-33 -5 -16 -19 -30 -31 -33 -12 -3 -32 -9 -44 -12 -36 -11 -28 13 10 28 42 18
54 34 58 79 4 43 -5 56 -24 39 -16 -13 -48 -4 -60 16 -4 7 -13 13 -20 13 -12
0 -47 -53 -47 -72 0 -6 -11 -23 -25 -40 -14 -16 -25 -42 -25 -57 0 -14 -7 -37
-16 -49 -12 -17 -14 -40 -10 -101 5 -82 13 -108 40 -131 9 -7 16 -20 16 -30 0
-9 9 -29 21 -44 16 -20 28 -26 54 -24 18 1 40 -4 48 -10 8 -7 32 -14 53 -16
28 -3 49 -14 81 -45 50 -47 77 -56 138 -48 57 8 65 -6 26 -47 -41 -42 -40 -71
2 -96 17 -11 26 -20 19 -20 -20 0 -90 -77 -107 -115 -7 -19 -18 -35 -23 -35
-14 0 -387 382 -419 430 -82 122 -127 255 -127 380 0 103 15 172 60 267 60
126 159 216 297 268 122 46 223 54 345 29z m-364 -454 c37 -14 32 -34 -14 -54
-53 -23 -65 -77 -28 -123 15 -19 48 -16 56 5 10 24 32 26 32 3 0 -19 -48 -51
-77 -51 -8 0 -19 14 -25 30 -5 17 -19 35 -29 41 -10 5 -19 18 -19 29 0 23 44
77 70 85 24 8 27 25 4 25 -8 0 -12 5 -9 10 8 12 8 12 39 0z m977 -27 c-10 -17
-10 -16 -11 3 0 23 13 41 18 25 2 -6 -1 -18 -7 -28z m-421 -23 c0 -21 -15 -27
-25 -10 -11 18 -25 10 -25 -15 0 -18 7 -28 25 -35 30 -12 34 -30 4 -23 -12 3
-28 21 -35 40 -8 19 -22 37 -30 40 -25 9 4 23 49 23 30 0 37 -4 37 -20z m-202
-6 c23 -16 29 -34 11 -34 -5 0 -27 11 -47 25 -35 24 -35 25 -12 25 14 0 36 -7
48 -16z m280 -7 c2 -12 -1 -15 -12 -11 -12 5 -14 -1 -9 -29 5 -33 -9 -77 -26
-77 -7 0 4 94 15 128 5 18 28 10 32 -11z m42 -44 c-11 -17 -11 -17 -6 0 3 10
7 26 7 35 1 15 2 15 6 0 2 -10 -1 -25 -7 -35z m-481 6 c6 -18 11 -44 11 -59 0
-26 32 -70 50 -70 6 0 10 -4 10 -10 0 -5 -8 -10 -19 -10 -10 0 -30 -9 -44 -20
-27 -21 -47 -26 -47 -11 0 5 10 13 21 16 19 6 21 13 17 66 -4 61 -29 101 -73
119 -15 7 -10 9 22 9 37 1 42 -2 52 -30z m105 9 c9 -12 16 -37 16 -55 0 -41
18 -43 27 -3 4 24 10 30 33 30 18 0 31 -8 40 -25 15 -27 7 -46 -12 -27 -7 7
-18 12 -25 12 -11 0 -11 -5 -3 -20 16 -31 5 -38 -39 -27 -38 10 -41 14 -47 56
-4 26 -11 54 -16 64 -13 25 8 21 26 -5z m-44 -50 c0 -15 -4 -28 -10 -28 -5 0
-10 10 -10 23 0 12 -3 33 -6 47 -5 24 -5 24 10 6 9 -11 16 -32 16 -48z m-126
6 c20 -19 30 -57 22 -82 -5 -15 -18 -21 -59 -25 -29 -2 -54 -3 -57 0 -9 8 22
20 43 16 14 -3 30 3 41 16 19 21 14 44 -8 35 -18 -7 -29 11 -21 36 8 24 18 25
39 4z m529 -9 c-3 -9 -8 -14 -10 -11 -3 3 -2 9 2 15 9 16 15 13 8 -4z m-110
-87 c-3 -13 -10 -29 -16 -35 -11 -16 -67 -17 -67 -3 0 6 12 9 28 8 26 -3 27
-2 26 46 0 48 0 48 17 27 10 -12 15 -30 12 -43z m-671 30 c-7 -7 -12 -8 -12
-2 0 14 12 26 19 19 2 -3 -1 -11 -7 -17z m618 -14 c0 -16 -16 -19 -25 -4 -8
13 4 32 16 25 5 -4 9 -13 9 -21z m-595 -50 c-7 -46 -25 -61 -25 -20 0 31 22
94 28 78 2 -7 1 -33 -3 -58z m692 24 c-3 -8 -6 -5 -6 6 -1 11 2 17 5 13 3 -3
4 -12 1 -19z m-237 -29 c12 -16 20 -32 17 -35 -2 -2 -12 7 -21 21 -9 14 -25
25 -36 25 -10 0 -22 5 -25 10 -3 6 5 10 19 10 16 0 32 -10 46 -31z m60 4 c0
-21 -3 -24 -9 -14 -5 8 -7 20 -4 28 8 21 13 15 13 -14z m-429 7 c40 -22 6 -60
-40 -45 -21 6 -19 32 3 47 14 10 14 10 37 -2z m109 -40 c0 -6 -11 -15 -24 -19
-13 -5 -26 -17 -30 -26 -3 -9 -11 -13 -17 -10 -6 5 -3 12 10 22 12 8 21 21 21
29 0 8 9 14 20 14 11 0 20 -5 20 -10z m175 0 c3 -5 15 -10 26 -10 12 0 19 -5
16 -12 -2 -8 -18 -12 -43 -10 -46 4 -66 19 -44 32 20 13 37 12 45 0z m-93 -37
c46 -54 8 -109 -47 -69 -17 12 -22 11 -46 -15 -28 -30 -53 -37 -64 -19 -4 6
-23 7 -45 4 -32 -5 -39 -3 -44 14 -4 12 -1 30 6 41 15 24 48 28 48 6 0 -10 11
-15 35 -15 26 0 39 6 51 25 16 24 18 25 35 9 18 -16 19 -16 19 9 0 32 28 37
52 10z m1736 -90 c45 -30 82 -90 82 -136 0 -15 -10 -54 -21 -88 -26 -74 -22
-108 20 -174 35 -56 38 -92 13 -149 l-18 -40 -34 42 c-18 23 -39 42 -47 42
-17 0 -17 -17 0 -23 7 -3 4 -6 -6 -6 -10 -1 -27 4 -38 9 -10 6 -19 7 -19 2 0
-19 27 -43 55 -48 17 -3 40 -12 52 -20 38 -24 44 -124 7 -138 -19 -7 -55 10
-51 26 1 7 -6 14 -16 16 -16 3 -18 0 -12 -20 4 -12 12 -29 17 -35 12 -15 72
-33 110 -33 34 0 44 -16 25 -38 -20 -24 -39 -61 -47 -97 -4 -16 -11 -39 -16
-50 -4 -11 16 6 45 38 29 31 59 57 66 57 18 0 30 19 18 31 -5 5 -24 -4 -47
-23 l-39 -32 18 28 c24 36 87 76 131 83 67 11 97 -54 51 -109 -12 -15 -62 -47
-112 -73 -49 -25 -100 -55 -113 -68 -13 -12 -22 -16 -20 -8 2 7 -3 16 -9 18
-10 3 -13 -14 -13 -67 0 -66 -4 -79 -42 -149 -38 -68 -39 -74 -18 -60 14 9 38
33 55 53 26 34 30 45 30 103 0 58 3 67 25 82 47 33 60 34 60 1 0 -68 -43 -220
-62 -220 -5 0 -8 -5 -8 -10 0 -13 -113 -129 -148 -152 -38 -25 -69 -22 -148
13 l-69 32 -139 -7 c-97 -4 -143 -3 -152 5 -19 16 -17 26 6 32 31 8 24 24 -15
31 -26 5 -46 1 -82 -17 -57 -29 -119 -48 -137 -41 -17 7 -58 80 -65 117 -8 39
-31 48 -31 12 0 -27 32 -98 58 -127 14 -17 13 -18 -9 -18 -16 0 -38 14 -60 36
-38 39 -42 40 -178 15 -78 -15 -138 -3 -204 39 -61 38 -80 82 -73 167 7 90 43
149 109 182 44 22 52 23 88 11 38 -13 159 -119 159 -140 0 -6 7 -10 15 -10 8
0 15 -4 15 -10 0 -5 5 -10 11 -10 18 0 2 62 -20 80 -68 55 -52 218 27 287 14
12 55 39 91 60 75 44 127 96 153 155 22 48 26 101 10 120 -24 30 -34 104 -22
164 29 140 122 240 207 222 13 -3 5 -11 -30 -27 -58 -28 -100 -80 -119 -146
-13 -42 -13 -75 -5 -200 10 -146 9 -152 -13 -203 -27 -63 -75 -107 -132 -122
-88 -22 -140 -61 -159 -117 -15 -47 -4 -53 20 -11 23 38 73 69 143 88 60 16
116 64 152 130 28 52 28 52 21 184 -3 72 -9 141 -11 152 -8 31 14 104 44 147
37 54 90 79 171 79 91 1 101 -2 114 -29 5 -12 16 -23 24 -23 7 0 23 -16 35
-35 13 -19 28 -33 33 -31 11 4 11 12 -6 78 -11 41 -10 50 7 80 42 72 163 92
242 41z m-1448 -84 c0 -5 -5 -7 -12 -3 -8 5 -9 1 -4 -12 6 -15 5 -17 -5 -6
-18 17 -34 15 -19 -3 17 -21 4 -37 -20 -23 -14 9 -31 9 -73 -1 -76 -19 -93 -4
-26 22 30 11 74 23 99 27 25 4 48 8 53 9 4 0 7 -4 7 -10z m85 -9 c-3 -5 -15
-10 -25 -10 -10 0 -22 5 -25 10 -4 6 7 10 25 10 18 0 29 -4 25 -10z"/>
<path d="M857 2324 c-3 -4 -20 -8 -37 -10 -17 -2 -41 -9 -53 -16 -12 -7 -49
-13 -82 -14 -82 -1 -141 -17 -171 -44 -13 -13 -24 -27 -24 -31 0 -33 296 -66
440 -49 130 15 200 31 200 44 0 25 -95 86 -133 86 -12 0 -37 9 -55 20 -32 20
-73 26 -85 14z m43 -18 c0 -3 -4 -8 -10 -11 -5 -3 -10 -1 -10 4 0 6 5 11 10
11 6 0 10 -2 10 -4z m-100 -20 c0 -3 -4 -8 -10 -11 -5 -3 -10 -1 -10 4 0 6 5
11 10 11 6 0 10 -2 10 -4z m-93 -33 c10 -10 14 -15 9 -10 -6 4 -23 7 -38 7
-15 0 -28 5 -28 10 0 16 36 11 57 -7z m168 7 c7 -12 -2 -12 -30 0 -19 8 -19 9
2 9 12 1 25 -3 28 -9z m65 -44 c0 -5 -7 -1 -15 10 -8 10 -14 24 -14 29 0 6 6
1 14 -9 8 -11 15 -24 15 -30z m108 24 c12 -19 11 -20 -8 -8 -11 7 -20 16 -20
20 0 15 15 8 28 -12z m-424 -6 c9 -8 16 -20 16 -27 0 -6 -6 -4 -12 5 -7 8 -22
20 -33 26 -17 9 -17 11 -3 12 9 0 24 -7 32 -16z m374 -6 c7 -7 12 -17 12 -22
0 -8 -3 -7 -8 0 -4 6 -16 16 -27 22 -15 8 -16 11 -4 12 8 0 20 -5 27 -12z
m-153 -8 c3 -5 2 -10 -4 -10 -5 0 -13 5 -16 10 -3 6 -2 10 4 10 5 0 13 -4 16
-10z m-255 -26 c0 -2 -9 0 -20 6 -11 6 -20 13 -20 16 0 2 9 0 20 -6 11 -6 20
-13 20 -16z m120 5 c0 -4 -7 -6 -15 -3 -8 4 -15 10 -15 15 0 4 7 6 15 3 8 -4
15 -10 15 -15z"/>
<path d="M2253 1676 c-43 -19 -61 -77 -47 -147 6 -27 7 -49 2 -49 -19 0 3 -18
29 -24 16 -4 43 -14 61 -24 33 -17 33 -18 27 -70 -6 -46 -3 -58 17 -88 15 -21
31 -34 46 -34 25 0 27 13 10 70 -14 43 -24 50 -32 23 -2 -10 -2 -2 1 19 8 55
-4 76 -53 99 -43 21 -50 32 -38 63 9 25 24 19 24 -9 0 -28 15 -34 24 -9 12 32
5 53 -25 77 -42 33 -34 63 21 72 55 9 77 -6 86 -60 8 -56 24 -49 24 10 0 37
-4 47 -31 66 -38 27 -104 34 -146 15z"/>
<path d="M1880 1512 c-34 -34 -38 -43 -43 -107 -4 -38 0 -135 7 -215 11 -127
11 -150 -2 -185 -8 -22 -20 -46 -25 -53 -20 -26 -93 -53 -182 -68 -118 -20
-169 -45 -200 -97 -30 -52 -47 -139 -23 -120 8 7 20 31 27 53 14 48 60 95 105
109 17 5 56 12 86 15 71 6 145 23 179 40 37 20 58 46 76 95 13 38 13 59 -1
199 -16 172 -12 244 17 291 32 53 97 62 156 24 13 -9 23 -11 23 -7 0 18 -67
52 -114 58 -46 6 -50 4 -86 -32z"/>
<path d="M2054 1240 c-25 -10 -68 -64 -79 -99 -14 -48 -7 -131 15 -162 26 -36
69 -59 107 -58 26 1 25 2 -8 11 -53 14 -81 48 -86 105 -7 70 11 126 52 162 86
75 164 10 157 -132 -2 -19 -9 -30 -27 -37 -31 -12 -33 -47 -6 -81 19 -24 19
-24 40 -5 14 13 21 31 21 55 0 20 2 57 6 83 13 98 -40 169 -124 167 -26 0 -57
-4 -68 -9z m140 -255 c3 -8 1 -15 -4 -15 -6 0 -10 7 -10 15 0 8 2 15 4 15 2 0
6 -7 10 -15z"/>
<path d="M2085 878 c-11 -6 -24 -17 -28 -25 -4 -7 -21 -13 -37 -13 -29 0 -70
-39 -70 -66 0 -22 16 -16 28 11 12 26 51 41 77 31 9 -3 23 -23 31 -43 37 -93
34 -90 49 -69 10 13 11 24 4 37 -7 14 -6 19 4 19 22 0 44 23 51 53 12 53 -57
95 -109 65z m59 -24 c20 -20 21 -35 1 -28 -8 4 -21 1 -29 -5 -10 -8 -16 -8
-25 3 -10 11 -7 17 11 30 27 19 23 19 42 0z"/>
<path d="M1667 740 c-45 -8 -84 -42 -92 -81 -4 -16 -11 -31 -16 -34 -16 -10
-10 -25 11 -25 12 0 29 16 47 48 38 66 50 74 103 67 56 -7 71 -21 31 -30 -34
-7 -74 -55 -69 -82 2 -12 10 -7 28 20 26 39 31 41 93 52 20 3 37 9 37 14 0 11
-71 48 -105 54 -16 3 -47 2 -68 -3z"/>
<path d="M1857 714 c18 -29 20 -27 -42 -68 -36 -24 -5 -31 35 -8 48 27 50 27
50 -1 0 -13 5 -28 12 -35 28 -28 128 -4 142 34 4 10 12 14 23 10 14 -6 14 -3
-2 14 -31 34 -52 42 -76 29 -15 -8 -20 -18 -16 -35 6 -31 -10 -41 -31 -21 -12
13 -13 21 -4 41 14 32 -6 62 -37 53 -11 -3 -21 -1 -21 4 0 5 -11 9 -25 9 -25
0 -25 0 -8 -26z m57 -19 c-4 -8 -8 -15 -10 -15 -2 0 -4 7 -4 15 0 8 4 15 10
15 5 0 7 -7 4 -15z"/>
<path d="M1150 673 c-48 -18 -90 -91 -90 -155 0 -75 66 -150 105 -118 23 19
18 30 -15 30 -23 0 -33 7 -45 30 -19 38 -19 68 2 116 16 36 17 37 20 14 10
-69 44 -106 85 -91 22 8 22 9 -10 25 -36 19 -38 39 -4 44 14 2 34 -9 57 -32
20 -20 42 -36 49 -36 14 0 26 -29 26 -62 0 -12 -8 -18 -21 -18 -11 0 -17 -4
-14 -10 3 -5 20 -10 36 -10 25 0 33 6 45 35 8 20 21 38 29 42 23 8 17 36 -11
56 -19 14 -34 17 -60 12 -41 -7 -64 7 -57 34 6 25 -14 62 -31 55 -13 -5 -34
13 -35 31 0 12 -39 17 -61 8z"/>
<path d="M2340 637 c0 -44 -2 -47 -37 -63 -21 -10 -42 -19 -46 -22 -5 -2 -28
17 -53 43 -24 26 -44 43 -44 37 0 -6 22 -35 49 -64 l49 -53 31 18 c35 20 40 9
16 -33 -34 -59 -7 -48 32 13 22 34 26 52 25 97 -3 69 -22 93 -22 27z"/>
</g>
</svg>
